PathFileType	4	(X/Y/Z)	./resultDataOpenSim/trcMotMarkerGrf/sub09/qtm-15-07.trc
DataRate	CameraRate	NumFrames	NumMarkers	Units	OrigDataRate	OrigDataStartFrame	OrigNumFrames
250.000000	250.000000	6	24	m	250.000000	235	469
Frame#	Time	L.Toe.Tip			R.Toe.Tip			L.Ankle.Lat			R.Ankle.Lat			L.Ankle.Med			R.Ankle.Med			L.Heel			R.Heel			L.Knee.Lat			R.Knee.Lat			L.Knee.Med			R.Knee.Med			L.Thigh.Upper			R.Thigh.Upper			L.ASIS			R.ASIS			V.Sacral			L.Acromium			R.Acromium			C7			L.Elbow			R.Elbow			L.Wrist.Lat			R.Wrist.Lat
		X1	Y1	Z1	X2	Y2	Z2	X3	Y3	Z3	X4	Y4	Z4	X5	Y5	Z5	X6	Y6	Z6	X7	Y7	Z7	X8	Y8	Z8	X9	Y9	Z9	X10	Y10	Z10	X11	Y11	Z11	X12	Y12	Z12	X13	Y13	Z13	X14	Y14	Z14	X15	Y15	Z15	X16	Y16	Z16	X17	Y17	Z17	X18	Y18	Z18	X19	Y19	Z19	X20	Y20	Z20	X21	Y21	Z21	X22	Y22	Z22	X23	Y23	Z23	X24	Y24	Z24

235	0.936	0.15571567	-0.059076509	0.037937888	0.45456342	0.094044042	0.12786726	0.022177409	-0.0028649866	-0.032332982	0.31240817	0.12672492	0.14260925	0.032840422	0.020383847	0.063839677	0.33945033	0.15434303	0.048988365	-0.057638214	-0.022579536	0.0044407549	0.24563578	0.10814831	0.08744067	0.15661107	0.39285002	-0.090123172	0.49983896	0.52609142	0.17951931	0.14195092	0.39988604	0.033196235	0.49951994	0.51451502	0.053407417	0.22699346	0.81008572	-0.15023552	0.22675422	0.8256919	0.21972119	0.32106922	0.89145769	-0.089107436	0.30133533	0.90732268	0.1503621	0.13376011	0.96178955	0.028602458	0.35170904	1.3462763	-0.12655432	0.26256666	1.3633334	0.19102679	0.2409387	1.4058768	0.013015263	0.26248936	0.9881273	-0.22314879	0.084371481	1.0459852	0.24721848	0.4865706	0.83575402	-0.23562621	0.17369377	0.7982423	0.32195541
236	0.94	0.15586304	-0.059062932	0.037839156	0.47615527	0.094390738	0.12598443	0.022379263	-0.0015988914	-0.032312484	0.33291949	0.12252309	0.14100273	0.033751696	0.02164759	0.063931841	0.3589723	0.15134051	0.047597956	-0.057305343	-0.02065377	0.0051277838	0.26667624	0.10217304	0.085916086	0.1575319	0.39390179	-0.09059628	0.50870896	0.52896855	0.17891425	0.14339216	0.40102496	0.032768344	0.50789257	0.51661215	0.053139893	0.23201282	0.81034425	-0.15028173	0.23385484	0.82625865	0.21984496	0.32688707	0.89108049	-0.089636799	0.30835273	0.90744022	0.14991727	0.14022923	0.96227068	0.028820079	0.35885323	1.346184	-0.12685911	0.27084865	1.3633837	0.19094894	0.24858371	1.4059515	0.012984406	0.2709563	0.98734247	-0.22322967	0.091165153	1.0472479	0.2471887	0.49768175	0.83850046	-0.23457065	0.17724164	0.79862973	0.32283938
237	0.944	0.15601149	-0.059050583	0.037766825	0.49766131	0.094831205	0.12408003	0.022598127	-0.00032362245	-0.032277808	0.35338738	0.11853685	0.1393882	0.034689628	0.022878124	0.064071279	0.37850359	0.14848821	0.046140447	-0.05691637	-0.018703063	0.0057260332	0.28787261	0.096399906	0.084229854	0.15854417	0.39493991	-0.091039395	0.51735125	0.53148118	0.17832959	0.14491566	0.40232428	0.032263901	0.51624065	0.51849856	0.052821199	0.23696996	0.81054033	-0.1502958	0.24092864	0.82677681	0.21998039	0.33270016	0.89064122	-0.090149505	0.31536459	0.90750372	0.14948923	0.14687657	0.96263341	0.028955241	0.3660057	1.3460503	-0.12717843	0.27914878	1.3633703	0.19085945	0.25624999	1.4059752	0.012949027	0.27939696	0.98652551	-0.22331585	0.097865412	1.0484478	0.24710277	0.50870038	0.84124027	-0.23348521	0.18053116	0.79891967	0.32355452
238	0.948	0.15616818	-0.059039422	0.03770973	0.51905177	0.095354813	0.12216534	0.02286787	0.00096648479	-0.032222355	0.37382541	0.1147808	0.1377447	0.035650457	0.024077703	0.064258195	0.39808853	0.14578481	0.044582269	-0.056455892	-0.016751664	0.0062524666	0.30915676	0.090865988	0.082443899	0.15963747	0.3959605	-0.091451426	0.52569469	0.53351129	0.17786867	0.14669884	0.40360449	0.031679393	0.52457481	0.52018063	0.052447012	0.24178349	0.81067282	-0.15019579	0.24797862	0.827254	0.22013257	0.3385295	0.89014523	-0.090650027	0.32238094	0.90750923	0.14907684	0.15352376	0.96293491	0.029095303	0.37317021	1.3458684	-0.12750323	0.28746931	1.3632939	0.19076322	0.26393733	1.4059436	0.012914571	0.28781858	0.98568137	-0.22340933	0.10454904	1.0496004	0.24706038	0.51962016	0.84397003	-0.23237273	0.18389503	0.79920596	0.32424096
239	0.952	0.15633555	-0.059030153	0.03765836	0.54028498	0.095982066	0.12025546	0.023184255	0.0022786867	-0.032146841	0.39426807	0.11125518	0.13603483	0.036646596	0.025264164	0.064477892	0.41772683	0.14322687	0.042916468	-0.055933066	-0.014806354	0.0067506787	0.33049053	0.085597203	0.08058054	0.16083594	0.39695586	-0.091828375	0.53375256	0.53512495	0.17747941	0.14867095	0.40465866	0.031198799	0.53278182	0.52166486	0.052092032	0.24649676	0.81075131	-0.14997157	0.25499406	0.82769198	0.22029249	0.3444002	0.88960113	-0.091124267	0.32940687	0.9074543	0.14868174	0.16009729	0.9631978	0.029282871	0.38035955	1.3456346	-0.12781879	0.29580974	1.3631617	0.1906693	0.27163624	1.4058524	0.01288449	0.29622359	0.98481203	-0.22351448	0.11138294	1.0507163	0.24716993	0.53043875	0.84669237	-0.2312324	0.18758204	0.7995469	0.32500491
240	0.956	0.15651143	-0.059020149	0.037609785	0.56133816	0.096734174	0.11836359	0.023532296	0.0036125976	-0.032025159	0.41472404	0.10795959	0.13424213	0.037681245	0.026448887	0.064708146	0.43738806	0.14081907	0.041161726	-0.055369692	-0.012864588	0.0072554559	0.3518553	0.080603823	0.078613595	0.16219928	0.39791688	-0.092175417	0.54155213	0.53640717	0.1770612	0.15068968	0.40541733	0.03092447	0.5407709	0.52294745	0.051818051	0.25121839	0.81079768	-0.14964693	0.26196995	0.82808505	0.22045409	0.35036478	0.88902364	-0.091524639	0.33643983	0.90734089	0.14830598	0.16657223	0.96342709	0.029537237	0.38758901	1.3453485	-0.12811358	0.30415986	1.3629795	0.19058072	0.2793311	1.405704	0.012872547	0.30460943	0.98391935	-0.223639	0.11846418	1.0517951	0.24747543	0.54115933	0.84941121	-0.23005943	0.19157816	0.79992788	0.32583773
